<svg aria-hidden="true" role="img" class="iconify iconify--logos" width="25" height="25" preserveAspectRatio="xMidYMid meet" viewBox="0 0 256 257" xmlns="http://www.w3.org/2000/svg" xmlns:xlink="http://www.w3.org/1999/xlink" xmlns:bx="https://boxy-svg.com">
  <defs>
    <linearGradient id="gradient-3" bx:pinned="true">
      <title>gg1</title>
      <stop offset="0" style="stop-color: rgb(255, 147, 6);"></stop>
      <stop offset="1" style="stop-color: rgb(255, 255, 0);"></stop>
    </linearGradient>
    <linearGradient id="gradient-0">
      <title>gg2</title>
      <stop offset="0" style="stop-color: rgb(255, 6, 255);"></stop>
      <stop offset="1" style="stop-color: rgb(255, 213, 0);"></stop>
    </linearGradient>
    <linearGradient id="gradient-0-1" gradientUnits="userSpaceOnUse" x1="128" y1="28.18" x2="128" y2="256.322" xlink:href="#gradient-0"></linearGradient>
    <linearGradient id="gradient-3-0" gradientUnits="userSpaceOnUse" x1="121.94" y1="99.952" x2="121.94" y2="218.088" xlink:href="#gradient-3"></linearGradient>
  </defs>
  <path d="M255.153 37.938L134.897 252.976c-2.483 4.44-8.862 4.466-11.382.048L.875 37.958c-2.746-4.814 1.371-10.646 6.827-9.67l120.385 21.517a6.537 6.537 0 0 0 2.322-.004l117.867-21.483c5.438-.991 9.574 4.796 6.877 9.62Z" style="fill: url(#gradient-0-1);"></path>
  <text style="font-family: Arial, sans-serif; font-size: 45.6px; white-space: pre;" transform="matrix(1, 0.098958, 0, 1, -3.76175, -16.360376)" x="37.963" y="93.177">Kromsys</text>
  <path style="fill: url(#gradient-3-0); fill-opacity: 0.91;" d="M 75.936 99.952 L 189.902 117.809 L 97.91 132.98 L 152.223 173.695 C 152.223 173.695 92.464 156.665 92.464 156.562 C 92.464 156.459 116.351 218.088 116.351 218.088 L 53.979 108.322 L 75.936 99.952 Z"></path>
  <text style="font-family: Arial, sans-serif; font-size: 78.2px; white-space: pre;" x="81.912" y="170.325" transform="matrix(1, 0.116988, 0, 1, -1.134159, -15.083182)">98</text>
</svg>